Coordinates
version=1
nRows=19
nColumns=36
inDegrees=yes

Units are S.I. units (second, meters, Newtons, ...)
If the header above contains a line with 'inDegrees', this indicates whether rotational values are in degrees (yes) or radians (no).

endheader
time	pelvis_tilt	pelvis_list	pelvis_rotation	pelvis_tx	pelvis_ty	pelvis_tz	hip_flexion_r	hip_adduction_r	hip_rotation_r	knee_angle_r	knee_angle_r_beta	ankle_angle_r	subtalar_angle_r	mtp_angle_r	hip_flexion_l	hip_adduction_l	hip_rotation_l	knee_angle_l	knee_angle_l_beta	ankle_angle_l	subtalar_angle_l	mtp_angle_l	lumbar_extension	lumbar_bending	lumbar_rotation	arm_flex_r	arm_add_r	arm_rot_r	elbow_flex_r	pro_sup_r	arm_flex_l	arm_add_l	arm_rot_l	elbow_flex_l	pro_sup_l
      6.66666670	     -1.45387237	      6.82942260	      0.41410089	     -0.18727609	      0.99109053	      0.02454105	      9.01278527	     -0.25779760	      1.05572544	     16.52897687	      0.28848507	     11.29932812	      1.76083285	     -7.49999987	     47.11809878	     -0.98886258	     -3.06634631	     25.20897888	      0.43997968	      9.09406226	      9.03531337	     -7.49999987	     -2.22791372	     -4.81700120	     -7.89357074	     37.72361276	     -6.19919161	     58.95182440	    121.25204164	     92.27697347	     38.91929773	     -8.02974113	     56.02637310	    134.62039945	     95.07095197
      6.68333330	     -1.53308747	      6.67322888	      0.42486585	     -0.19262031	      0.99049785	      0.02044819	     10.23039193	     -0.17794994	      0.81358437	     18.36316674	      0.32049772	     11.72254870	      1.71537746	     -7.49999987	     47.60902342	     -1.14601033	     -3.07586386	     25.65146345	      0.44770250	      8.62297658	      9.09545947	     -7.49999987	     -2.56613460	     -4.17418143	     -7.84228560	     38.38765857	     -6.46829364	     59.61867406	    120.88394869	     92.53941234	     38.58698888	     -8.19783834	     55.46595998	    133.80043771	     95.76620274
      6.70000000	     -1.68506030	      6.62243610	      0.64937413	     -0.19202344	      0.98699753	      0.02060046	     11.27306188	     -0.21107095	      0.67147442	     19.91099058	      0.34751234	     12.22851459	      1.63248018	     -7.49999987	     48.23376298	     -1.16874881	     -2.87570937	     26.23622219	      0.45790846	      8.28762406	      8.75323077	     -7.49999987	     -2.53915565	     -3.86075198	     -8.20111521	     38.83284573	     -6.38302822	     59.65336458	    121.33096946	     91.11805912	     38.75553672	     -8.39423460	     55.35913042	    133.57616892	     94.52257740
      6.71666670	     -1.82126736	      6.56222089	      1.02833625	     -0.19203532	      0.98355366	      0.02002212	     12.40755501	     -0.30630457	      0.14754118	     21.75415757	      0.37968168	     12.99139703	      2.06727061	     -7.49999987	     48.91743610	     -1.08096979	     -2.30771564	     26.86264005	      0.46884151	      8.04190243	      8.04387631	     -7.49999987	     -2.79553333	     -3.41293093	     -9.05784692	     39.84625165	     -6.38717301	     60.88743494	    121.69064891	     92.60096430	     39.00275020	     -8.64145239	     55.26294092	    133.66661376	     99.10352822
      6.73333330	     -1.92393829	      6.39423842	      1.32416475	     -0.19742877	      0.98197007	      0.01667680	     13.57550091	     -0.34662634	     -0.13821669	     23.52623495	      0.41061026	     13.43771207	      2.31311745	     -7.49999987	     49.64849018	     -1.11394406	     -1.80154834	     27.17556647	      0.47430311	      7.69119381	      7.60651147	     -7.49999987	     -3.56308935	     -2.67713553	     -9.52824075	     41.48446344	     -6.57116714	     62.15395614	    122.31259547	     92.69378361	     40.55203501	     -8.43541842	     55.55483149	    133.63906123	     99.26977949
      6.75000000	     -1.95512230	      6.31381437	      1.57543975	     -0.19766819	      0.98228216	      0.01595395	     14.29875435	     -0.44469469	     -0.47516045	     24.79197323	      0.43270156	     13.98411920	      2.79738685	     -7.49999987	     49.89084015	     -0.99188609	     -1.48027138	     27.06082552	      0.47230050	      7.13760138	      7.33156512	     -7.49999987	     -4.43078546	     -1.99757036	    -10.21477907	     42.94609899	     -6.75524065	     63.81574137	    122.13400236	     92.42890090	     41.16652636	     -8.94030706	     55.43922527	    133.81126124	    100.36673774
      6.76666670	     -1.97742262	      6.17744821	      1.70783918	     -0.20251434	      0.97803956	      0.01280150	     15.28079673	     -0.52923616	     -0.76574755	     26.36637469	      0.46018005	     14.31306549	      3.00882494	     -7.49999987	     50.36805102	     -0.99693404	     -1.13204926	     27.20331945	      0.47478749	      6.55113241	      7.45544586	     -7.49999987	     -5.27098602	     -1.32950028	    -10.40234608	     44.18731014	     -6.72911019	     64.34890874	    122.84956061	     92.49651667	     42.54119865	     -9.00530561	     55.23235140	    133.83731145	    100.41669183
      6.78333330	     -2.15225093	      5.65176849	      2.06148669	     -0.20811800	      0.97090615	      0.01612970	     16.46574790	     -0.20125412	     -1.46103170	     28.03135562	      0.48923945	     15.13588613	      4.43141343	     -7.49999987	     51.36076596	     -1.27161642	     -0.06847685	     27.44096205	      0.47893514	      6.07142411	      6.97804032	     -7.49999987	     -6.03512182	     -0.35069096	    -10.54848820	     45.89883388	     -6.48278329	     66.28278489	    123.65342982	     92.27474605	     44.20303430	     -8.73487159	     56.16888172	    134.45193825	    100.73020809
      6.80000000	     -2.44715804	      5.13184869	      2.39014508	     -0.20759384	      0.96332348	      0.01620776	     17.98642779	      0.15162693	     -2.09924289	     30.02551903	      0.52404417	     16.07640004	      5.40137516	     -7.49999987	     52.62348963	     -1.62867492	      0.91620762	     28.17829234	      0.49180398	      5.77191107	      6.57920164	     -7.49999987	     -6.24709829	      0.56625279	    -10.24200724	     47.12918939	     -6.25396383	     66.89454030	    124.45907173	     93.78530847	     45.83674049	     -7.65520976	     57.78198439	    134.52981309	    102.85344245
      6.81666670	     -2.81124748	      4.74123259	      2.68581810	     -0.20794216	      0.95706387	      0.01554105	     19.57462973	      0.32255024	     -2.73570532	     32.06740860	      0.55968186	     17.19296483	      6.20416982	     -7.49999987	     54.00081138	     -1.80953733	      1.57333571	     29.23124696	      0.51018150	      5.60860580	      6.43831647	     -7.49999987	     -6.32666688	      1.35812658	    -10.11811894	     47.95666241	     -6.28109053	     67.90005679	    126.01108886	     92.10413966	     46.60687071	     -6.99042763	     59.17927806	    135.03494505	    100.81290715
      6.83333330	     -3.11293182	      4.26355935	      3.08599557	     -0.20728086	      0.94692616	      0.01537175	     21.29901871	      0.52566127	     -3.48387343	     34.69649867	      0.60556814	     18.67128845	      6.86345300	     -7.49999987	     55.33846723	     -1.95969695	      2.74716137	     30.22584068	      0.52754044	      5.65014510	      5.87733881	     -7.49999987	     -6.48099706	      2.08151489	    -10.02977256	     49.03723865	     -6.19485307	     68.04380033	    126.83133390	     92.03435058	     47.85971459	     -6.49703238	     59.81753085	    135.57474407	    100.77270851
      6.85000000	     -4.06210602	      3.61938452	      3.52696658	     -0.20742538	      0.93600000	      0.01447679	     23.82969116	      0.72975558	     -4.36660683	     37.60401089	      0.65631380	     20.42097808	      7.67094380	     -7.49999987	     57.45301157	     -2.07656570	      4.12601808	     31.29690703	      0.54623407	      5.66889738	      5.01970605	     -7.49999987	     -5.75495637	      2.88623349	    -10.03249233	     50.30779598	     -5.99848957	     67.76028929	    125.94442459	     91.06387036	     49.17861793	     -6.47906845	     59.10897937	    135.87740138	     99.39611992
      6.86666670	     -4.42131161	      3.01934913	      3.56543315	     -0.21895451	      0.93329260	      0.01570822	     25.87415151	      1.06055572	     -4.80290199	     40.32170505	      0.70374651	     21.50944006	      7.93647711	     -7.49999987	     58.82079318	     -2.47138428	      4.93802111	     31.77215824	      0.55452877	      5.26353482	      4.62207765	     -7.49999987	     -6.39676161	      3.82016309	     -9.64479253	     52.19286640	     -6.03505591	     67.99684842	    125.47861860	     91.29896828	     50.87018886	     -6.68540660	     58.20408767	    136.45161923	     99.71479858
      6.88333330	     -4.97200190	      2.13831056	      3.50640092	     -0.22476710	      0.92428072	      0.01928299	     28.37182313	      1.74952350	     -5.37163745	     43.36956186	      0.75694165	     22.65341526	      8.24689861	     -7.49999987	     60.52052303	     -3.16809932	      5.87751906	     32.35214610	      0.56465147	      4.50416805	      4.42331785	     -7.49999987	     -6.91614678	      4.97951335	    -10.13611754	     54.79620544	     -4.63256677	     68.66660940	    124.38836454	     91.67659820	     53.08287719	     -7.10884255	     57.03319305	    136.85410555	    100.71440116
      6.90000000	     -5.29272938	      1.25809150	      3.23876743	     -0.23622323	      0.91420563	      0.02829846	     30.87082082	      2.76034351	     -5.78871358	     46.51005818	      0.81175365	     23.67631102	      8.62585508	     -7.49999987	     62.10722646	     -4.17296282	      6.64791429	     33.10522402	      0.57779516	      3.45240381	      4.30318995	     -7.49999987	     -8.20258465	      5.70405542	     -9.84369163	     56.95604533	     -4.44435796	     68.17954130	    123.48530258	     91.53676571	     55.88674190	     -8.46108370	     56.44619881	    135.97797157	    100.69018472
      6.91666670	     -5.94350714	      0.44503977	      2.94209489	     -0.24120724	      0.90187352	      0.03165710	     33.67051814	      3.73925531	     -6.14433513	     49.70836740	      0.86757468	     24.84478019	      9.04855990	     -7.49999987	     64.06453797	     -5.07358350	      7.56495639	     34.04023337	      0.59411415	      2.48836124	      4.23750242	     -7.49999987	     -8.81274722	      6.37908344	     -9.35496096	     59.08300009	     -3.55311243	     68.79382119	    123.96982472	     90.34037964	     58.59943732	     -9.36066431	     56.72167748	    136.12793499	     99.43913320
      6.93333330	     -6.25836749	     -0.09027251	      2.42635973	     -0.24546456	      0.89336621	      0.02797003	     35.99541950	      4.40933997	     -6.36471629	     52.37559390	      0.91412656	     25.85887208	      9.02329225	     -7.49999987	     65.35704661	     -5.74655429	      7.87279850	     34.40611333	      0.60049996	      1.51017842	      4.43588698	     -7.49999987	    -10.19415697	      7.11937853	     -8.32614423	     61.79890032	     -4.07769813	     68.44143976	    124.37443667	     90.36262330	     60.80262454	     -9.86085190	     55.49226006	    135.99802808	     99.40242126
      6.95000000	     -7.39641669	     -0.52365388	      2.10753627	     -0.24405650	      0.88088501	      0.02767713	     38.94402733	      4.90740843	     -6.62886784	     54.85137660	      0.95733712	     26.96362297	      8.76825239	     -7.49999987	     67.31103499	     -6.01865981	      8.21447273	     34.86345445	      0.60848207	      0.88527212	      4.62298957	     -7.49999987	    -10.11670665	      7.63066030	     -6.95322936	     64.02436041	     -4.30619334	     69.50821986	    122.96117137	     90.12001357	     62.30382118	     -8.55375286	     54.57775872	    133.52291414	     98.74065917
      6.96666670	     -8.64003535	     -0.81347172	      1.87096709	     -0.24301287	      0.87106235	      0.02794130	     41.80861793	      5.24583628	     -6.69858530	     57.09181551	      0.99644016	     27.90056695	      8.17849584	     -7.49999987	     69.45449446	     -6.16150968	      8.60908593	     35.20274975	      0.61440389	      0.33311664	      4.77187711	     -7.49999987	     -9.61565349	      7.90599979	     -5.67272314	     65.07550256	     -4.13595855	     70.28899366	    121.89631463	     90.69281053	     63.35640629	     -7.20334165	     58.20609074	    131.30095919	     99.76842269
